%TF.GenerationSoftware,KiCad,Pcbnew,9.0.6*%
%TF.CreationDate,2025-12-24T22:30:17+00:00*%
%TF.ProjectId,555 Chaser,35353520-4368-4617-9365-722e6b696361,rev?*%
%TF.SameCoordinates,Original*%
%TF.FileFunction,Soldermask,Top*%
%TF.FilePolarity,Negative*%
%FSLAX46Y46*%
G04 Gerber Fmt 4.6, Leading zero omitted, Abs format (unit mm)*
G04 Created by KiCad (PCBNEW 9.0.6) date 2025-12-24 22:30:17*
%MOMM*%
%LPD*%
G01*
G04 APERTURE LIST*
G04 Aperture macros list*
%AMRoundRect*
0 Rectangle with rounded corners*
0 $1 Rounding radius*
0 $2 $3 $4 $5 $6 $7 $8 $9 X,Y pos of 4 corners*
0 Add a 4 corners polygon primitive as box body*
4,1,4,$2,$3,$4,$5,$6,$7,$8,$9,$2,$3,0*
0 Add four circle primitives for the rounded corners*
1,1,$1+$1,$2,$3*
1,1,$1+$1,$4,$5*
1,1,$1+$1,$6,$7*
1,1,$1+$1,$8,$9*
0 Add four rect primitives between the rounded corners*
20,1,$1+$1,$2,$3,$4,$5,0*
20,1,$1+$1,$4,$5,$6,$7,0*
20,1,$1+$1,$6,$7,$8,$9,0*
20,1,$1+$1,$8,$9,$2,$3,0*%
G04 Aperture macros list end*
%ADD10C,6.400000*%
%ADD11R,1.295400X1.295400*%
%ADD12C,1.295400*%
%ADD13RoundRect,0.250000X-0.550000X-0.550000X0.550000X-0.550000X0.550000X0.550000X-0.550000X0.550000X0*%
%ADD14C,1.600000*%
%ADD15C,1.440000*%
%ADD16R,1.800000X1.800000*%
%ADD17C,1.800000*%
%ADD18C,2.000000*%
G04 APERTURE END LIST*
D10*
%TO.C,H2*%
X97000000Y-46000000D03*
%TD*%
D11*
%TO.C,U2*%
X85590000Y-54010000D03*
D12*
X85590000Y-56550000D03*
X85590000Y-59090000D03*
X85590000Y-61630000D03*
X85590000Y-64170000D03*
X85590000Y-66710000D03*
X85590000Y-69250000D03*
X85590000Y-71790000D03*
X93210000Y-71790000D03*
X93210000Y-69250000D03*
X93210000Y-66710000D03*
X93210000Y-64170000D03*
X93210000Y-61630000D03*
X93210000Y-59090000D03*
X93210000Y-56550000D03*
X93210000Y-54010000D03*
%TD*%
D13*
%TO.C,U1*%
X97495000Y-52890000D03*
D14*
X97495000Y-55430000D03*
X97495000Y-57970000D03*
X97495000Y-60510000D03*
X105115000Y-60510000D03*
X105115000Y-57970000D03*
X105115000Y-55430000D03*
X105115000Y-52890000D03*
%TD*%
D15*
%TO.C,RV1*%
X81640000Y-54395000D03*
X79100000Y-54395000D03*
X76560000Y-54395000D03*
%TD*%
D14*
%TO.C,R2*%
X96280000Y-65300000D03*
X103900000Y-65300000D03*
%TD*%
%TO.C,R1*%
X105300000Y-48800000D03*
X112920000Y-48800000D03*
%TD*%
D10*
%TO.C,H1*%
X70600000Y-58300000D03*
%TD*%
D16*
%TO.C,D10*%
X78160000Y-61100000D03*
D17*
X80700000Y-61100000D03*
%TD*%
D16*
%TO.C,D9*%
X85000000Y-82400000D03*
D17*
X87540000Y-82400000D03*
%TD*%
D16*
%TO.C,D8*%
X96460000Y-72100000D03*
D17*
X99000000Y-72100000D03*
%TD*%
D16*
%TO.C,D7*%
X108560000Y-62500000D03*
D17*
X111100000Y-62500000D03*
%TD*%
D16*
%TO.C,D6*%
X116825000Y-47200000D03*
D17*
X119365000Y-47200000D03*
%TD*%
D16*
%TO.C,D5*%
X104025000Y-42700000D03*
D17*
X106565000Y-42700000D03*
%TD*%
D16*
%TO.C,D4*%
X87300000Y-45900000D03*
D17*
X89840000Y-45900000D03*
%TD*%
D16*
%TO.C,D3*%
X74360000Y-48200000D03*
D17*
X76900000Y-48200000D03*
%TD*%
D16*
%TO.C,D2*%
X64160000Y-51900000D03*
D17*
X66700000Y-51900000D03*
%TD*%
D16*
%TO.C,D1*%
X49025000Y-58700000D03*
D17*
X51565000Y-58700000D03*
%TD*%
D18*
%TO.C,C2*%
X56500000Y-58500000D03*
X61500000Y-58500000D03*
%TD*%
D14*
%TO.C,C1*%
X111400000Y-55700000D03*
X116400000Y-55700000D03*
%TD*%
M02*
