%TF.GenerationSoftware,KiCad,Pcbnew,9.0.6*%
%TF.CreationDate,2025-12-24T22:30:16+00:00*%
%TF.ProjectId,555 Chaser,35353520-4368-4617-9365-722e6b696361,rev?*%
%TF.SameCoordinates,Original*%
%TF.FileFunction,Copper,L2,Bot*%
%TF.FilePolarity,Positive*%
%FSLAX46Y46*%
G04 Gerber Fmt 4.6, Leading zero omitted, Abs format (unit mm)*
G04 Created by KiCad (PCBNEW 9.0.6) date 2025-12-24 22:30:16*
%MOMM*%
%LPD*%
G01*
G04 APERTURE LIST*
G04 Aperture macros list*
%AMRoundRect*
0 Rectangle with rounded corners*
0 $1 Rounding radius*
0 $2 $3 $4 $5 $6 $7 $8 $9 X,Y pos of 4 corners*
0 Add a 4 corners polygon primitive as box body*
4,1,4,$2,$3,$4,$5,$6,$7,$8,$9,$2,$3,0*
0 Add four circle primitives for the rounded corners*
1,1,$1+$1,$2,$3*
1,1,$1+$1,$4,$5*
1,1,$1+$1,$6,$7*
1,1,$1+$1,$8,$9*
0 Add four rect primitives between the rounded corners*
20,1,$1+$1,$2,$3,$4,$5,0*
20,1,$1+$1,$4,$5,$6,$7,0*
20,1,$1+$1,$6,$7,$8,$9,0*
20,1,$1+$1,$8,$9,$2,$3,0*%
G04 Aperture macros list end*
%TA.AperFunction,ComponentPad*%
%ADD10C,6.400000*%
%TD*%
%TA.AperFunction,ComponentPad*%
%ADD11R,1.295400X1.295400*%
%TD*%
%TA.AperFunction,ComponentPad*%
%ADD12C,1.295400*%
%TD*%
%TA.AperFunction,ComponentPad*%
%ADD13RoundRect,0.250000X-0.550000X-0.550000X0.550000X-0.550000X0.550000X0.550000X-0.550000X0.550000X0*%
%TD*%
%TA.AperFunction,ComponentPad*%
%ADD14C,1.600000*%
%TD*%
%TA.AperFunction,ComponentPad*%
%ADD15C,1.440000*%
%TD*%
%TA.AperFunction,ComponentPad*%
%ADD16R,1.800000X1.800000*%
%TD*%
%TA.AperFunction,ComponentPad*%
%ADD17C,1.800000*%
%TD*%
%TA.AperFunction,ComponentPad*%
%ADD18C,2.000000*%
%TD*%
%TA.AperFunction,ViaPad*%
%ADD19C,0.600000*%
%TD*%
%TA.AperFunction,Conductor*%
%ADD20C,0.200000*%
%TD*%
G04 APERTURE END LIST*
D10*
%TO.P,H2,1,1*%
%TO.N,GND*%
X97000000Y-46000000D03*
%TD*%
D11*
%TO.P,U2,1,Q5*%
%TO.N,Net-(D6-A)*%
X85590000Y-54010000D03*
D12*
%TO.P,U2,2,Q1*%
%TO.N,Net-(D2-A)*%
X85590000Y-56550000D03*
%TO.P,U2,3,Q0*%
%TO.N,Net-(D1-A)*%
X85590000Y-59090000D03*
%TO.P,U2,4,Q2*%
%TO.N,Net-(D3-A)*%
X85590000Y-61630000D03*
%TO.P,U2,5,Q6*%
%TO.N,Net-(D7-A)*%
X85590000Y-64170000D03*
%TO.P,U2,6,Q7*%
%TO.N,Net-(D8-A)*%
X85590000Y-66710000D03*
%TO.P,U2,7,Q3*%
%TO.N,Net-(D4-A)*%
X85590000Y-69250000D03*
%TO.P,U2,8,VSS*%
%TO.N,GND*%
X85590000Y-71790000D03*
%TO.P,U2,9,Q8*%
%TO.N,Net-(D9-A)*%
X93210000Y-71790000D03*
%TO.P,U2,10,Q4*%
%TO.N,Net-(D5-A)*%
X93210000Y-69250000D03*
%TO.P,U2,11,Q9*%
%TO.N,Net-(D10-A)*%
X93210000Y-66710000D03*
%TO.P,U2,12,Cout*%
%TO.N,unconnected-(U2-Cout-Pad12)*%
X93210000Y-64170000D03*
%TO.P,U2,13,CKEN*%
%TO.N,GND*%
X93210000Y-61630000D03*
%TO.P,U2,14,CLK*%
%TO.N,OUT*%
X93210000Y-59090000D03*
%TO.P,U2,15,Reset*%
%TO.N,GND*%
X93210000Y-56550000D03*
%TO.P,U2,16,VDD*%
%TO.N,+5V*%
X93210000Y-54010000D03*
%TD*%
D13*
%TO.P,U1,1,GND*%
%TO.N,GND*%
X97495000Y-52890000D03*
D14*
%TO.P,U1,2,TR*%
%TO.N,TR*%
X97495000Y-55430000D03*
%TO.P,U1,3,Q*%
%TO.N,OUT*%
X97495000Y-57970000D03*
%TO.P,U1,4,R*%
%TO.N,+5V*%
X97495000Y-60510000D03*
%TO.P,U1,5,CV*%
%TO.N,Net-(U1-CV)*%
X105115000Y-60510000D03*
%TO.P,U1,6,THR*%
%TO.N,TR*%
X105115000Y-57970000D03*
%TO.P,U1,7,DIS*%
%TO.N,Net-(U1-DIS)*%
X105115000Y-55430000D03*
%TO.P,U1,8,VCC*%
%TO.N,+5V*%
X105115000Y-52890000D03*
%TD*%
D15*
%TO.P,RV1,1,1*%
%TO.N,Net-(U1-DIS)*%
X81640000Y-54395000D03*
%TO.P,RV1,2,2*%
X79100000Y-54395000D03*
%TO.P,RV1,3,3*%
%TO.N,TR*%
X76560000Y-54395000D03*
%TD*%
D14*
%TO.P,R2,1*%
%TO.N,+5V*%
X96280000Y-65300000D03*
%TO.P,R2,2*%
%TO.N,Net-(U1-DIS)*%
X103900000Y-65300000D03*
%TD*%
%TO.P,R1,1*%
%TO.N,Net-(D1-K)*%
X105300000Y-48800000D03*
%TO.P,R1,2*%
%TO.N,GND*%
X112920000Y-48800000D03*
%TD*%
D10*
%TO.P,H1,1,1*%
%TO.N,+5V*%
X70600000Y-58300000D03*
%TD*%
D16*
%TO.P,D10,1,K*%
%TO.N,Net-(D1-K)*%
X78160000Y-61100000D03*
D17*
%TO.P,D10,2,A*%
%TO.N,Net-(D10-A)*%
X80700000Y-61100000D03*
%TD*%
D16*
%TO.P,D9,1,K*%
%TO.N,Net-(D1-K)*%
X85000000Y-82400000D03*
D17*
%TO.P,D9,2,A*%
%TO.N,Net-(D9-A)*%
X87540000Y-82400000D03*
%TD*%
D16*
%TO.P,D8,1,K*%
%TO.N,Net-(D1-K)*%
X96460000Y-72100000D03*
D17*
%TO.P,D8,2,A*%
%TO.N,Net-(D8-A)*%
X99000000Y-72100000D03*
%TD*%
D16*
%TO.P,D7,1,K*%
%TO.N,Net-(D1-K)*%
X108560000Y-62500000D03*
D17*
%TO.P,D7,2,A*%
%TO.N,Net-(D7-A)*%
X111100000Y-62500000D03*
%TD*%
D16*
%TO.P,D6,1,K*%
%TO.N,Net-(D1-K)*%
X116825000Y-47200000D03*
D17*
%TO.P,D6,2,A*%
%TO.N,Net-(D6-A)*%
X119365000Y-47200000D03*
%TD*%
D16*
%TO.P,D5,1,K*%
%TO.N,Net-(D1-K)*%
X104025000Y-42700000D03*
D17*
%TO.P,D5,2,A*%
%TO.N,Net-(D5-A)*%
X106565000Y-42700000D03*
%TD*%
D16*
%TO.P,D4,1,K*%
%TO.N,Net-(D1-K)*%
X87300000Y-45900000D03*
D17*
%TO.P,D4,2,A*%
%TO.N,Net-(D4-A)*%
X89840000Y-45900000D03*
%TD*%
D16*
%TO.P,D3,1,K*%
%TO.N,Net-(D1-K)*%
X74360000Y-48200000D03*
D17*
%TO.P,D3,2,A*%
%TO.N,Net-(D3-A)*%
X76900000Y-48200000D03*
%TD*%
D16*
%TO.P,D2,1,K*%
%TO.N,Net-(D1-K)*%
X64160000Y-51900000D03*
D17*
%TO.P,D2,2,A*%
%TO.N,Net-(D2-A)*%
X66700000Y-51900000D03*
%TD*%
D16*
%TO.P,D1,1,K*%
%TO.N,Net-(D1-K)*%
X49025000Y-58700000D03*
D17*
%TO.P,D1,2,A*%
%TO.N,Net-(D1-A)*%
X51565000Y-58700000D03*
%TD*%
D18*
%TO.P,C2,1*%
%TO.N,TR*%
X56500000Y-58500000D03*
%TO.P,C2,2*%
%TO.N,GND*%
X61500000Y-58500000D03*
%TD*%
D14*
%TO.P,C1,1*%
%TO.N,GND*%
X111400000Y-55700000D03*
%TO.P,C1,2*%
%TO.N,Net-(U1-CV)*%
X116400000Y-55700000D03*
%TD*%
D19*
%TO.N,Net-(D4-A)*%
X87800000Y-67700000D03*
X88500000Y-60600000D03*
X91200000Y-56300000D03*
%TO.N,Net-(D2-A)*%
X84200000Y-50000000D03*
%TO.N,Net-(D6-A)*%
X88700000Y-50000000D03*
%TO.N,Net-(U1-DIS)*%
X89900000Y-54000000D03*
X89900000Y-56800000D03*
X95300000Y-60500000D03*
%TO.N,Net-(D3-A)*%
X88600000Y-56200000D03*
X87600000Y-50900000D03*
%TO.N,TR*%
X101900000Y-58000000D03*
X100100000Y-57200000D03*
%TO.N,GND*%
X107900000Y-55100000D03*
X109300000Y-55100000D03*
X88600000Y-69000000D03*
X87400000Y-70700000D03*
%TD*%
D20*
%TO.N,Net-(D1-K)*%
X86339000Y-82400000D02*
X85000000Y-82400000D01*
X86339000Y-82897471D02*
X86339000Y-82400000D01*
X87042529Y-83601000D02*
X86339000Y-82897471D01*
X88741000Y-82897471D02*
X88037471Y-83601000D01*
X91000000Y-82400000D02*
X88741000Y-82400000D01*
X88037471Y-83601000D02*
X87042529Y-83601000D01*
X96460000Y-76940000D02*
X91000000Y-82400000D01*
X88741000Y-82400000D02*
X88741000Y-82897471D01*
X96460000Y-72100000D02*
X96460000Y-76940000D01*
X108520000Y-50700000D02*
X108560000Y-50740000D01*
X107200000Y-50700000D02*
X108520000Y-50700000D01*
X105300000Y-48800000D02*
X107200000Y-50700000D01*
X108560000Y-50740000D02*
X108560000Y-52060000D01*
X112100000Y-47200000D02*
X108560000Y-50740000D01*
X116825000Y-47200000D02*
X112100000Y-47200000D01*
%TO.N,Net-(D4-A)*%
X87800000Y-67700000D02*
X87800000Y-67800000D01*
X87800000Y-61300000D02*
X87800000Y-67700000D01*
X88500000Y-60600000D02*
X87800000Y-61300000D01*
X91200000Y-47260000D02*
X91200000Y-56300000D01*
X89840000Y-45900000D02*
X91200000Y-47260000D01*
%TO.N,Net-(D2-A)*%
X84200000Y-55160000D02*
X85590000Y-56550000D01*
X84200000Y-50000000D02*
X84200000Y-55160000D01*
%TO.N,Net-(D6-A)*%
X85590000Y-50610000D02*
X85590000Y-54010000D01*
X86200000Y-50000000D02*
X85590000Y-50610000D01*
X88700000Y-50000000D02*
X86200000Y-50000000D01*
%TO.N,Net-(U1-DIS)*%
X89900000Y-56800000D02*
X89900000Y-54000000D01*
X97038950Y-56869000D02*
X95300000Y-58607950D01*
X99581057Y-56869000D02*
X97038950Y-56869000D01*
X101020057Y-55430000D02*
X99581057Y-56869000D01*
X95300000Y-58607950D02*
X95300000Y-60500000D01*
X105115000Y-55430000D02*
X101020057Y-55430000D01*
%TO.N,Net-(D3-A)*%
X88600000Y-51900000D02*
X87600000Y-50900000D01*
X88600000Y-56200000D02*
X88600000Y-51900000D01*
%TO.N,GND*%
X92260000Y-57500000D02*
X93210000Y-56550000D01*
X78000000Y-57500000D02*
X92260000Y-57500000D01*
X75299000Y-54799000D02*
X78000000Y-57500000D01*
X65201000Y-54799000D02*
X75299000Y-54799000D01*
X61500000Y-58500000D02*
X65201000Y-54799000D01*
%TO.N,TR*%
X101100000Y-57200000D02*
X101900000Y-58000000D01*
X100100000Y-57200000D02*
X101100000Y-57200000D01*
%TO.N,GND*%
X98934000Y-54329000D02*
X97495000Y-52890000D01*
X107129000Y-54329000D02*
X98934000Y-54329000D01*
X107900000Y-55100000D02*
X107129000Y-54329000D01*
X109900000Y-55700000D02*
X109300000Y-55100000D01*
X111400000Y-55700000D02*
X109900000Y-55700000D01*
X88600000Y-69000000D02*
X88600000Y-66240000D01*
X88600000Y-66240000D02*
X93210000Y-61630000D01*
X86680000Y-70700000D02*
X87400000Y-70700000D01*
X85590000Y-71790000D02*
X86680000Y-70700000D01*
%TO.N,Net-(D1-K)*%
X89124265Y-70800000D02*
X85982965Y-67658700D01*
%TO.N,GND*%
X92261300Y-60681300D02*
X93210000Y-61630000D01*
X92261300Y-57498700D02*
X92261300Y-60681300D01*
X93210000Y-56550000D02*
X92261300Y-57498700D01*
X96870000Y-52890000D02*
X93210000Y-56550000D01*
X97495000Y-52890000D02*
X96870000Y-52890000D01*
X97495000Y-46495000D02*
X97000000Y-46000000D01*
X97495000Y-52890000D02*
X97495000Y-46495000D01*
X112920000Y-54180000D02*
X111400000Y-55700000D01*
X112920000Y-48800000D02*
X112920000Y-54180000D01*
%TO.N,Net-(D1-K)*%
X97661000Y-70899000D02*
X96460000Y-72100000D01*
X100161000Y-70899000D02*
X97661000Y-70899000D01*
X108560000Y-62500000D02*
X100161000Y-70899000D01*
X108560000Y-52060000D02*
X108560000Y-62500000D01*
X104025000Y-47525000D02*
X105300000Y-48800000D01*
X104025000Y-42700000D02*
X104025000Y-47525000D01*
X90701000Y-42499000D02*
X103824000Y-42499000D01*
X103824000Y-42499000D02*
X104025000Y-42700000D01*
X87300000Y-45900000D02*
X90701000Y-42499000D01*
X76660000Y-45900000D02*
X87300000Y-45900000D01*
X74360000Y-48200000D02*
X76660000Y-45900000D01*
X67860000Y-48200000D02*
X74360000Y-48200000D01*
X64160000Y-51900000D02*
X67860000Y-48200000D01*
X61260108Y-51900000D02*
X64160000Y-51900000D01*
X55661108Y-57499000D02*
X61260108Y-51900000D01*
X50226000Y-57499000D02*
X55661108Y-57499000D01*
X49025000Y-58700000D02*
X50226000Y-57499000D01*
X84718700Y-67658700D02*
X78160000Y-61100000D01*
X85982965Y-67658700D02*
X84718700Y-67658700D01*
X95160000Y-70800000D02*
X89124265Y-70800000D01*
X96460000Y-72100000D02*
X95160000Y-70800000D01*
%TD*%
M02*
