M48
; DRILL file {KiCad 9.0.6} date 2025-12-24T22:30:13+0000
; FORMAT={-:-/ absolute / metric / decimal}
; #@! TF.CreationDate,2025-12-24T22:30:13+00:00
; #@! TF.GenerationSoftware,Kicad,Pcbnew,9.0.6
; #@! TF.FileFunction,Plated,1,2,PTH
FMAT,2
METRIC
; #@! TA.AperFunction,Plated,PTH,ViaDrill
T1C0.300
; #@! TA.AperFunction,Plated,PTH,ComponentDrill
T2C0.787
; #@! TA.AperFunction,Plated,PTH,ComponentDrill
T3C0.800
; #@! TA.AperFunction,Plated,PTH,ComponentDrill
T4C0.900
; #@! TA.AperFunction,Plated,PTH,ComponentDrill
T5C1.000
; #@! TA.AperFunction,Plated,PTH,ComponentDrill
T6C3.200
%
G90
G05
T1
X84.2Y-50.0
X87.4Y-70.7
X87.6Y-50.9
X87.8Y-67.7
X88.5Y-60.6
X88.6Y-56.2
X88.6Y-69.0
X88.7Y-50.0
X89.9Y-54.0
X89.9Y-56.8
X91.2Y-56.3
X95.3Y-60.5
X100.1Y-57.2
X101.9Y-58.0
X107.9Y-55.1
X109.3Y-55.1
T2
X85.59Y-54.01
X85.59Y-56.55
X85.59Y-59.09
X85.59Y-61.63
X85.59Y-64.17
X85.59Y-66.71
X85.59Y-69.25
X85.59Y-71.79
X93.21Y-54.01
X93.21Y-56.55
X93.21Y-59.09
X93.21Y-61.63
X93.21Y-64.17
X93.21Y-66.71
X93.21Y-69.25
X93.21Y-71.79
T3
X76.56Y-54.395
X79.1Y-54.395
X81.64Y-54.395
X96.28Y-65.3
X97.495Y-52.89
X97.495Y-55.43
X97.495Y-57.97
X97.495Y-60.51
X103.9Y-65.3
X105.115Y-52.89
X105.115Y-55.43
X105.115Y-57.97
X105.115Y-60.51
X105.3Y-48.8
X111.4Y-55.7
X112.92Y-48.8
X116.4Y-55.7
T4
X49.025Y-58.7
X51.565Y-58.7
X64.16Y-51.9
X66.7Y-51.9
X74.36Y-48.2
X76.9Y-48.2
X78.16Y-61.1
X80.7Y-61.1
X85.0Y-82.4
X87.3Y-45.9
X87.54Y-82.4
X89.84Y-45.9
X96.46Y-72.1
X99.0Y-72.1
X104.025Y-42.7
X106.565Y-42.7
X108.56Y-62.5
X111.1Y-62.5
X116.825Y-47.2
X119.365Y-47.2
T5
X56.5Y-58.5
X61.5Y-58.5
T6
X70.6Y-58.3
X97.0Y-46.0
M30
