%TF.GenerationSoftware,KiCad,Pcbnew,9.0.6*%
%TF.CreationDate,2025-12-24T22:30:16+00:00*%
%TF.ProjectId,555 Chaser,35353520-4368-4617-9365-722e6b696361,rev?*%
%TF.SameCoordinates,Original*%
%TF.FileFunction,Copper,L1,Top*%
%TF.FilePolarity,Positive*%
%FSLAX46Y46*%
G04 Gerber Fmt 4.6, Leading zero omitted, Abs format (unit mm)*
G04 Created by KiCad (PCBNEW 9.0.6) date 2025-12-24 22:30:16*
%MOMM*%
%LPD*%
G01*
G04 APERTURE LIST*
G04 Aperture macros list*
%AMRoundRect*
0 Rectangle with rounded corners*
0 $1 Rounding radius*
0 $2 $3 $4 $5 $6 $7 $8 $9 X,Y pos of 4 corners*
0 Add a 4 corners polygon primitive as box body*
4,1,4,$2,$3,$4,$5,$6,$7,$8,$9,$2,$3,0*
0 Add four circle primitives for the rounded corners*
1,1,$1+$1,$2,$3*
1,1,$1+$1,$4,$5*
1,1,$1+$1,$6,$7*
1,1,$1+$1,$8,$9*
0 Add four rect primitives between the rounded corners*
20,1,$1+$1,$2,$3,$4,$5,0*
20,1,$1+$1,$4,$5,$6,$7,0*
20,1,$1+$1,$6,$7,$8,$9,0*
20,1,$1+$1,$8,$9,$2,$3,0*%
G04 Aperture macros list end*
%TA.AperFunction,ComponentPad*%
%ADD10C,6.400000*%
%TD*%
%TA.AperFunction,ComponentPad*%
%ADD11R,1.295400X1.295400*%
%TD*%
%TA.AperFunction,ComponentPad*%
%ADD12C,1.295400*%
%TD*%
%TA.AperFunction,ComponentPad*%
%ADD13RoundRect,0.250000X-0.550000X-0.550000X0.550000X-0.550000X0.550000X0.550000X-0.550000X0.550000X0*%
%TD*%
%TA.AperFunction,ComponentPad*%
%ADD14C,1.600000*%
%TD*%
%TA.AperFunction,ComponentPad*%
%ADD15C,1.440000*%
%TD*%
%TA.AperFunction,ComponentPad*%
%ADD16R,1.800000X1.800000*%
%TD*%
%TA.AperFunction,ComponentPad*%
%ADD17C,1.800000*%
%TD*%
%TA.AperFunction,ComponentPad*%
%ADD18C,2.000000*%
%TD*%
%TA.AperFunction,ViaPad*%
%ADD19C,0.600000*%
%TD*%
%TA.AperFunction,Conductor*%
%ADD20C,0.200000*%
%TD*%
G04 APERTURE END LIST*
D10*
%TO.P,H2,1,1*%
%TO.N,GND*%
X97000000Y-46000000D03*
%TD*%
D11*
%TO.P,U2,1,Q5*%
%TO.N,Net-(D6-A)*%
X85590000Y-54010000D03*
D12*
%TO.P,U2,2,Q1*%
%TO.N,Net-(D2-A)*%
X85590000Y-56550000D03*
%TO.P,U2,3,Q0*%
%TO.N,Net-(D1-A)*%
X85590000Y-59090000D03*
%TO.P,U2,4,Q2*%
%TO.N,Net-(D3-A)*%
X85590000Y-61630000D03*
%TO.P,U2,5,Q6*%
%TO.N,Net-(D7-A)*%
X85590000Y-64170000D03*
%TO.P,U2,6,Q7*%
%TO.N,Net-(D8-A)*%
X85590000Y-66710000D03*
%TO.P,U2,7,Q3*%
%TO.N,Net-(D4-A)*%
X85590000Y-69250000D03*
%TO.P,U2,8,VSS*%
%TO.N,GND*%
X85590000Y-71790000D03*
%TO.P,U2,9,Q8*%
%TO.N,Net-(D9-A)*%
X93210000Y-71790000D03*
%TO.P,U2,10,Q4*%
%TO.N,Net-(D5-A)*%
X93210000Y-69250000D03*
%TO.P,U2,11,Q9*%
%TO.N,Net-(D10-A)*%
X93210000Y-66710000D03*
%TO.P,U2,12,Cout*%
%TO.N,unconnected-(U2-Cout-Pad12)*%
X93210000Y-64170000D03*
%TO.P,U2,13,CKEN*%
%TO.N,GND*%
X93210000Y-61630000D03*
%TO.P,U2,14,CLK*%
%TO.N,OUT*%
X93210000Y-59090000D03*
%TO.P,U2,15,Reset*%
%TO.N,GND*%
X93210000Y-56550000D03*
%TO.P,U2,16,VDD*%
%TO.N,+5V*%
X93210000Y-54010000D03*
%TD*%
D13*
%TO.P,U1,1,GND*%
%TO.N,GND*%
X97495000Y-52890000D03*
D14*
%TO.P,U1,2,TR*%
%TO.N,TR*%
X97495000Y-55430000D03*
%TO.P,U1,3,Q*%
%TO.N,OUT*%
X97495000Y-57970000D03*
%TO.P,U1,4,R*%
%TO.N,+5V*%
X97495000Y-60510000D03*
%TO.P,U1,5,CV*%
%TO.N,Net-(U1-CV)*%
X105115000Y-60510000D03*
%TO.P,U1,6,THR*%
%TO.N,TR*%
X105115000Y-57970000D03*
%TO.P,U1,7,DIS*%
%TO.N,Net-(U1-DIS)*%
X105115000Y-55430000D03*
%TO.P,U1,8,VCC*%
%TO.N,+5V*%
X105115000Y-52890000D03*
%TD*%
D15*
%TO.P,RV1,1,1*%
%TO.N,Net-(U1-DIS)*%
X81640000Y-54395000D03*
%TO.P,RV1,2,2*%
X79100000Y-54395000D03*
%TO.P,RV1,3,3*%
%TO.N,TR*%
X76560000Y-54395000D03*
%TD*%
D14*
%TO.P,R2,1*%
%TO.N,+5V*%
X96280000Y-65300000D03*
%TO.P,R2,2*%
%TO.N,Net-(U1-DIS)*%
X103900000Y-65300000D03*
%TD*%
%TO.P,R1,1*%
%TO.N,Net-(D1-K)*%
X105300000Y-48800000D03*
%TO.P,R1,2*%
%TO.N,GND*%
X112920000Y-48800000D03*
%TD*%
D10*
%TO.P,H1,1,1*%
%TO.N,+5V*%
X70600000Y-58300000D03*
%TD*%
D16*
%TO.P,D10,1,K*%
%TO.N,Net-(D1-K)*%
X78160000Y-61100000D03*
D17*
%TO.P,D10,2,A*%
%TO.N,Net-(D10-A)*%
X80700000Y-61100000D03*
%TD*%
D16*
%TO.P,D9,1,K*%
%TO.N,Net-(D1-K)*%
X85000000Y-82400000D03*
D17*
%TO.P,D9,2,A*%
%TO.N,Net-(D9-A)*%
X87540000Y-82400000D03*
%TD*%
D16*
%TO.P,D8,1,K*%
%TO.N,Net-(D1-K)*%
X96460000Y-72100000D03*
D17*
%TO.P,D8,2,A*%
%TO.N,Net-(D8-A)*%
X99000000Y-72100000D03*
%TD*%
D16*
%TO.P,D7,1,K*%
%TO.N,Net-(D1-K)*%
X108560000Y-62500000D03*
D17*
%TO.P,D7,2,A*%
%TO.N,Net-(D7-A)*%
X111100000Y-62500000D03*
%TD*%
D16*
%TO.P,D6,1,K*%
%TO.N,Net-(D1-K)*%
X116825000Y-47200000D03*
D17*
%TO.P,D6,2,A*%
%TO.N,Net-(D6-A)*%
X119365000Y-47200000D03*
%TD*%
D16*
%TO.P,D5,1,K*%
%TO.N,Net-(D1-K)*%
X104025000Y-42700000D03*
D17*
%TO.P,D5,2,A*%
%TO.N,Net-(D5-A)*%
X106565000Y-42700000D03*
%TD*%
D16*
%TO.P,D4,1,K*%
%TO.N,Net-(D1-K)*%
X87300000Y-45900000D03*
D17*
%TO.P,D4,2,A*%
%TO.N,Net-(D4-A)*%
X89840000Y-45900000D03*
%TD*%
D16*
%TO.P,D3,1,K*%
%TO.N,Net-(D1-K)*%
X74360000Y-48200000D03*
D17*
%TO.P,D3,2,A*%
%TO.N,Net-(D3-A)*%
X76900000Y-48200000D03*
%TD*%
D16*
%TO.P,D2,1,K*%
%TO.N,Net-(D1-K)*%
X64160000Y-51900000D03*
D17*
%TO.P,D2,2,A*%
%TO.N,Net-(D2-A)*%
X66700000Y-51900000D03*
%TD*%
D16*
%TO.P,D1,1,K*%
%TO.N,Net-(D1-K)*%
X49025000Y-58700000D03*
D17*
%TO.P,D1,2,A*%
%TO.N,Net-(D1-A)*%
X51565000Y-58700000D03*
%TD*%
D18*
%TO.P,C2,1*%
%TO.N,TR*%
X56500000Y-58500000D03*
%TO.P,C2,2*%
%TO.N,GND*%
X61500000Y-58500000D03*
%TD*%
D14*
%TO.P,C1,1*%
%TO.N,GND*%
X111400000Y-55700000D03*
%TO.P,C1,2*%
%TO.N,Net-(U1-CV)*%
X116400000Y-55700000D03*
%TD*%
D19*
%TO.N,Net-(D4-A)*%
X87800000Y-67700000D03*
X88500000Y-60600000D03*
X91200000Y-56300000D03*
%TO.N,Net-(D2-A)*%
X84200000Y-50000000D03*
%TO.N,Net-(D6-A)*%
X88700000Y-50000000D03*
%TO.N,Net-(U1-DIS)*%
X89900000Y-54000000D03*
X89900000Y-56800000D03*
X95300000Y-60500000D03*
%TO.N,Net-(D3-A)*%
X88600000Y-56200000D03*
X87600000Y-50900000D03*
%TO.N,TR*%
X101900000Y-58000000D03*
X100100000Y-57200000D03*
%TO.N,GND*%
X107900000Y-55100000D03*
X109300000Y-55100000D03*
X88600000Y-69000000D03*
X87400000Y-70700000D03*
%TD*%
D20*
%TO.N,Net-(D9-A)*%
X88490000Y-71790000D02*
X93210000Y-71790000D01*
X85180000Y-75100000D02*
X88490000Y-71790000D01*
X87540000Y-77460000D02*
X87540000Y-82400000D01*
X85180000Y-75100000D02*
X87540000Y-77460000D01*
%TO.N,Net-(D6-A)*%
X88800000Y-49900000D02*
X88700000Y-50000000D01*
X100000000Y-49900000D02*
X88800000Y-49900000D01*
X104800000Y-45100000D02*
X100000000Y-49900000D01*
X119000000Y-45100000D02*
X104800000Y-45100000D01*
X119365000Y-45465000D02*
X119000000Y-45100000D01*
X119365000Y-47200000D02*
X119365000Y-45465000D01*
%TO.N,Net-(D5-A)*%
X106550000Y-69250000D02*
X93210000Y-69250000D01*
X106800000Y-69000000D02*
X106550000Y-69250000D01*
X107878526Y-69000000D02*
X106800000Y-69000000D01*
X113452969Y-63425557D02*
X107878526Y-69000000D01*
X113452969Y-62047031D02*
X113452969Y-63425557D01*
X117700000Y-57800000D02*
X113452969Y-62047031D01*
X117700000Y-56500000D02*
X117700000Y-57800000D01*
X121443658Y-52756342D02*
X117700000Y-56500000D01*
X121443658Y-45856342D02*
X121443658Y-52756342D01*
X121800000Y-45500000D02*
X121443658Y-45856342D01*
X121800000Y-44300000D02*
X121800000Y-45500000D01*
X120600000Y-43100000D02*
X121800000Y-44300000D01*
X106965000Y-43100000D02*
X120600000Y-43100000D01*
X106565000Y-42700000D02*
X106965000Y-43100000D01*
%TO.N,Net-(D4-A)*%
X85590000Y-69250000D02*
X87140000Y-67700000D01*
X87140000Y-67700000D02*
X87800000Y-67700000D01*
X88500000Y-57350057D02*
X88500000Y-60600000D01*
X89651057Y-56199000D02*
X88500000Y-57350057D01*
X91099000Y-56199000D02*
X89651057Y-56199000D01*
X91200000Y-56300000D02*
X91099000Y-56199000D01*
%TO.N,Net-(D2-A)*%
X84000000Y-49800000D02*
X84200000Y-50000000D01*
X68800000Y-49800000D02*
X84000000Y-49800000D01*
X66700000Y-51900000D02*
X68800000Y-49800000D01*
%TO.N,OUT*%
X96375000Y-59090000D02*
X97495000Y-57970000D01*
X93210000Y-59090000D02*
X96375000Y-59090000D01*
%TO.N,+5V*%
X98111025Y-58911025D02*
X98602500Y-59402500D01*
X98600000Y-58422050D02*
X98111025Y-58911025D01*
X97951050Y-56869000D02*
X98600000Y-57517950D01*
X98600000Y-57517950D02*
X98600000Y-58422050D01*
X98602500Y-59402500D02*
X97495000Y-60510000D01*
X97038950Y-56869000D02*
X97951050Y-56869000D01*
X96553975Y-57353975D02*
X97038950Y-56869000D01*
X93210000Y-54010000D02*
X96553975Y-57353975D01*
%TO.N,Net-(U1-DIS)*%
X82973700Y-53061300D02*
X81640000Y-54395000D01*
X89900000Y-54000000D02*
X88961300Y-53061300D01*
X88961300Y-53061300D02*
X82973700Y-53061300D01*
X90100000Y-57000000D02*
X89900000Y-56800000D01*
X90100000Y-60600000D02*
X90100000Y-57000000D01*
X95200000Y-60600000D02*
X90100000Y-60600000D01*
X95300000Y-60500000D02*
X95200000Y-60600000D01*
X105115000Y-55430000D02*
X105192500Y-55507500D01*
%TO.N,Net-(D1-A)*%
X92256050Y-65756050D02*
X85590000Y-59090000D01*
X95179000Y-65756050D02*
X92256050Y-65756050D01*
X95823950Y-66401000D02*
X95179000Y-65756050D01*
X96736050Y-66401000D02*
X95823950Y-66401000D01*
X98596000Y-64541050D02*
X96736050Y-66401000D01*
X98596000Y-60053950D02*
X98596000Y-64541050D01*
X104658950Y-53991000D02*
X98596000Y-60053950D01*
X106216000Y-52433950D02*
X106216000Y-53346050D01*
X105282050Y-51500000D02*
X106216000Y-52433950D01*
X78011087Y-51500000D02*
X105282050Y-51500000D01*
X106216000Y-53346050D02*
X105571050Y-53991000D01*
X56292913Y-53972087D02*
X75539000Y-53972087D01*
X51565000Y-58700000D02*
X56292913Y-53972087D01*
X75539000Y-53972087D02*
X78011087Y-51500000D01*
X105571050Y-53991000D02*
X104658950Y-53991000D01*
%TO.N,Net-(U1-DIS)*%
X79100000Y-54395000D02*
X81640000Y-54395000D01*
%TO.N,Net-(D3-A)*%
X86658700Y-58141300D02*
X88600000Y-56200000D01*
X85197035Y-58141300D02*
X86658700Y-58141300D01*
X84641300Y-58697035D02*
X85197035Y-58141300D01*
%TO.N,+5V*%
X73600000Y-55300000D02*
X70600000Y-58300000D01*
X76021087Y-55300000D02*
X73600000Y-55300000D01*
X76137087Y-55416000D02*
X76021087Y-55300000D01*
X76982913Y-55416000D02*
X76137087Y-55416000D01*
X77098913Y-55300000D02*
X76982913Y-55416000D01*
X78561087Y-55300000D02*
X77098913Y-55300000D01*
X78677087Y-55416000D02*
X78561087Y-55300000D01*
X79638913Y-55300000D02*
X79522913Y-55416000D01*
X81217087Y-55416000D02*
X81101087Y-55300000D01*
X82062913Y-55416000D02*
X81217087Y-55416000D01*
X82178913Y-55300000D02*
X82062913Y-55416000D01*
X81101087Y-55300000D02*
X79638913Y-55300000D01*
X91920000Y-55300000D02*
X82178913Y-55300000D01*
X79522913Y-55416000D02*
X78677087Y-55416000D01*
X93210000Y-54010000D02*
X91920000Y-55300000D01*
%TO.N,Net-(D3-A)*%
X84641300Y-60681300D02*
X84641300Y-58697035D01*
X85590000Y-61630000D02*
X84641300Y-60681300D01*
X84900000Y-48200000D02*
X87600000Y-50900000D01*
X76900000Y-48200000D02*
X84900000Y-48200000D01*
%TO.N,Net-(U1-DIS)*%
X104658950Y-59409000D02*
X103900000Y-60167950D01*
X105233050Y-59409000D02*
X104658950Y-59409000D01*
X106216000Y-58426050D02*
X105233050Y-59409000D01*
X103900000Y-60167950D02*
X103900000Y-65300000D01*
X106216000Y-56531000D02*
X106216000Y-58426050D01*
X105115000Y-55430000D02*
X106216000Y-56531000D01*
%TO.N,TR*%
X99265000Y-57200000D02*
X100100000Y-57200000D01*
X97495000Y-55430000D02*
X99265000Y-57200000D01*
X101930000Y-57970000D02*
X101900000Y-58000000D01*
X105115000Y-57970000D02*
X101930000Y-57970000D01*
%TO.N,Net-(D7-A)*%
X86237100Y-64170000D02*
X85590000Y-64170000D01*
X89725800Y-67658700D02*
X86237100Y-64170000D01*
X105941300Y-67658700D02*
X89725800Y-67658700D01*
X111100000Y-62500000D02*
X105941300Y-67658700D01*
%TO.N,Net-(U1-CV)*%
X111590000Y-60510000D02*
X105115000Y-60510000D01*
X116400000Y-55700000D02*
X111590000Y-60510000D01*
%TO.N,Net-(D8-A)*%
X92000000Y-70500000D02*
X88210000Y-66710000D01*
X88210000Y-66710000D02*
X85590000Y-66710000D01*
X97400000Y-70500000D02*
X92000000Y-70500000D01*
X99000000Y-72100000D02*
X97400000Y-70500000D01*
%TO.N,Net-(D10-A)*%
X82400000Y-62800000D02*
X80700000Y-61100000D01*
X88384014Y-62800000D02*
X82400000Y-62800000D01*
X92294014Y-66710000D02*
X88384014Y-62800000D01*
X93210000Y-66710000D02*
X92294014Y-66710000D01*
%TO.N,TR*%
X60605000Y-54395000D02*
X76560000Y-54395000D01*
X56500000Y-58500000D02*
X60605000Y-54395000D01*
%TO.N,+5V*%
X103995000Y-54010000D02*
X93210000Y-54010000D01*
X105115000Y-52890000D02*
X103995000Y-54010000D01*
X97495000Y-60510000D02*
X97495000Y-64085000D01*
X97495000Y-64085000D02*
X96280000Y-65300000D01*
%TO.N,GND*%
X109300000Y-55100000D02*
X107900000Y-55100000D01*
X88600000Y-69500000D02*
X88600000Y-69000000D01*
X87400000Y-70700000D02*
X88600000Y-69500000D01*
%TD*%
M02*
